<?xml version="1.0" encoding="UTF-8"?>
<svg id="svg1936" xmlns="http://www.w3.org/2000/svg" viewBox="0 0 1000 195.499">
  <path id="path8" d="M402.462,152.886c-37.699,27.787-92.342,42.613-139.388,42.613-65.966,0-125.353-24.398-170.281-64.978-3.53-3.191-.367-7.54,3.869-5.055,48.486,28.211,108.438,45.182,170.366,45.182,41.765,0,87.71-8.641,129.956-26.573,6.382-2.711,11.719,4.179,5.478,8.811" fill="#currentColor" fill-rule="evenodd" stroke-width="0"/>
  <path id="path10" d="M418.135,134.955c-4.801-6.156-31.854-2.909-43.996-1.468-3.699.452-4.264-2.767-.932-5.083,21.546-15.164,56.902-10.787,61.024-5.704,4.123,5.111-1.073,40.551-21.32,57.466-3.106,2.598-6.071,1.214-4.688-2.231,4.546-11.352,14.741-36.795,9.912-42.98" fill="#currentColor" fill-rule="evenodd" stroke-width="0"/>
  <path id="path12" d="M374.986,21.349V6.608c0-2.231,1.694-3.728,3.728-3.728h65.995c2.118,0,3.812,1.525,3.812,3.728v12.623c-.028,2.118-1.807,4.885-4.97,9.262l-34.197,48.825c12.708-.311,26.121,1.581,37.643,8.076,2.598,1.468,3.304,3.615,3.502,5.733v15.729c0,2.146-2.372,4.659-4.857,3.36-20.304-10.646-47.272-11.804-69.722.113-2.287,1.243-4.688-1.243-4.688-3.389v-14.938c0-2.4.028-6.495,2.429-10.138l39.619-56.817h-34.48c-2.118,0-3.812-1.497-3.812-3.699" fill="currentColor" fill-rule="evenodd" stroke-width="0"/>
  <path id="path14" d="M134.248,113.324h-20.078c-1.92-.141-3.445-1.581-3.586-3.417V6.863c0-2.061,1.723-3.699,3.869-3.699h18.722c1.949.085,3.502,1.581,3.643,3.445v13.47h.367c4.885-13.018,14.063-19.09,26.432-19.09,12.566,0,20.417,6.071,26.065,19.09,4.857-13.018,15.899-19.09,27.731-19.09,8.415,0,17.621,3.473,23.241,11.267,6.354,8.669,5.055,21.264,5.055,32.305l-.028,65.034c0,2.061-1.723,3.728-3.869,3.728h-20.05c-2.005-.141-3.615-1.751-3.615-3.728v-54.614c0-4.349.395-15.193-.565-19.315-1.497-6.919-5.987-8.867-11.804-8.867-4.857,0-9.94,3.247-12.002,8.443-2.061,5.196-1.864,13.894-1.864,19.739v54.614c0,2.061-1.723,3.728-3.869,3.728h-20.05c-2.033-.141-3.615-1.751-3.615-3.728l-.028-54.614c0-11.493,1.892-28.408-12.369-28.408-14.43,0-13.865,16.492-13.865,28.408v54.614c0,2.061-1.723,3.728-3.869,3.728" fill="currentColor" fill-rule="evenodd" stroke-width="0"/>
  <path id="path16" d="M505.337.989c29.792,0,45.917,25.585,45.917,58.116,0,31.43-17.819,56.365-45.917,56.365-29.256,0-45.182-25.585-45.182-57.466,0-32.08,16.124-57.015,45.182-57.015M505.506,22.027c-14.797,0-15.729,20.163-15.729,32.729s-.198,39.478,15.56,39.478c15.56,0,16.294-21.688,16.294-34.903,0-8.698-.367-19.09-2.993-27.335-2.259-7.173-6.749-9.968-13.131-9.968" fill="currentColor" fill-rule="evenodd" stroke-width="0"/>
  <path id="path18" d="M589.884,113.324h-19.993c-2.005-.141-3.615-1.751-3.615-3.728l-.028-103.072c.169-1.892,1.836-3.36,3.869-3.36h18.609c1.751.085,3.191,1.271,3.586,2.88v15.757h.367c5.62-14.091,13.498-20.812,27.364-20.812,9.008,0,17.791,3.247,23.438,12.143,5.252,8.246,5.252,22.111,5.252,32.079v64.865c-.226,1.807-1.892,3.247-3.869,3.247h-20.134c-1.836-.141-3.36-1.497-3.558-3.247v-55.97c0-11.267,1.299-27.759-12.566-27.759-4.885,0-9.375,3.276-11.606,8.246-2.824,6.297-3.191,12.566-3.191,19.513v55.49c-.028,2.061-1.779,3.728-3.925,3.728" fill="currentColor" fill-rule="evenodd" stroke-width="0"/>
  <path id="path20" d="M661.301,105.134c0-5.196,4.434-9.375,9.884-9.375s9.884,4.179,9.884,9.375c0,5.168-4.434,9.404-9.884,9.404s-9.884-4.236-9.884-9.404" fill="currentColor" fill-rule="evenodd" stroke-width="0"/>
  <path id="path22" d="M874.025,113.352c-2.09-.085-3.728-1.694-3.728-3.728V6.58c.113-1.836,1.666-3.276,3.586-3.389h7.37c2.033,0,3.671,1.468,3.841,3.389v15.023c5.252-11.917,15.023-21.236,27.364-21.236h1.497c13.103,0,22.676,9.658,26.234,23.693,5.563-13.865,16.012-23.693,29.792-23.693h1.525c9.742,0,19.118,6.269,23.975,15.814,4.688,9.121,4.518,21.264,4.518,31.458l-.028,61.985c.028,1.977-1.581,3.586-3.586,3.728h-8.811c-1.92-.085-3.473-1.44-3.728-3.219v-62.493c0-7.37.367-15.193-2.626-21.913-3.05-6.862-8.895-11.154-15.164-11.465-7.003.339-13.442,5.45-17.621,12.34-5.422,8.895-5.224,16.915-5.224,27.307v56.28c-.254,1.694-1.751,3.022-3.586,3.163h-8.754c-2.09-.085-3.756-1.694-3.756-3.728l-.057-66.108c0-6.071-.367-13.216-3.163-18.666-3.247-6.213-9.065-10.279-15.164-10.59-6.326.367-12.708,5.196-16.492,10.816-4.885,7.173-5.817,16.04-5.817,25.161v59.387c0,1.977-1.61,3.586-3.615,3.728h-8.782" fill="currentColor" fill-rule="evenodd" stroke-width="0"/>
  <path id="path24" d="M813.537,115.498c-28.493,0-41.257-29.058-41.257-58.116,0-30.555,14.995-57.015,43.686-57.015h1.525c27.9,0,41.794,28.183,41.794,57.24,0,30.78-15.39,57.89-44.25,57.89h-1.497M815.627,101.407c9.375-.311,16.774-6.128,21.151-15.814,3.925-8.698,4.688-18.666,4.688-28.211,0-10.392-1.13-21.236-6.015-30.131-4.377-7.766-11.889-12.708-19.852-12.99-8.867.311-16.802,6.326-20.784,15.588-3.586,8.02-4.688,18.666-4.688,27.533,0,9.968,1.299,21.49,5.422,30.159,4.01,8.218,11.719,13.555,20.078,13.865" fill="currentColor" fill-rule="evenodd" stroke-width="0"/>
  <path id="path26" d="M724.5,100.955c12.792-.395,19.513-10.646,22.281-23.918.565-1.666,1.836-2.937,3.699-2.937l8.443-.028c2.005.085,3.841,1.61,3.671,3.473-3.897,22.619-17.536,37.953-36.965,37.953h-1.525c-28.295,0-40.495-28.408-40.495-57.24,0-28.606,12.369-57.89,40.664-57.89h1.525c19.654,0,33.661,15.136,36.711,37.756,0,1.694-1.581,3.163-3.445,3.36l-8.839-.113c-1.864-.254-3.078-1.836-3.36-3.615-2.118-12.623-9.375-22.676-21.462-23.071-19.231.621-24.709,24.286-24.709,42.5,0,17.536,4.575,43.149,23.805,43.77" fill="currentColor" fill-rule="evenodd" stroke-width="0"/>
  <path id="path28" d="M322.376,64.103c0,7.822.198,14.345-3.756,21.292-3.191,5.648-8.274,9.121-13.894,9.121-7.709,0-12.227-5.874-12.227-14.543,0-17.113,15.334-20.219,29.877-20.219v4.349M342.624,113.041c-1.327,1.186-3.247,1.271-4.744.48-6.664-5.535-7.879-8.105-11.522-13.385-11.013,11.239-18.835,14.6-33.096,14.6-16.915,0-30.046-10.42-30.046-31.289,0-16.294,8.811-27.392,21.405-32.814,10.9-4.801,26.121-5.648,37.756-6.975v-2.598c0-4.772.367-10.42-2.457-14.543-2.429-3.699-7.116-5.224-11.267-5.224-7.653,0-14.458,3.925-16.124,12.058-.339,1.807-1.666,3.586-3.502,3.671l-19.457-2.09c-1.638-.367-3.473-1.694-2.993-4.208C271.038,7.117,292.387,0,311.476,0c9.771,0,22.535,2.598,30.244,9.997,9.771,9.121,8.839,21.292,8.839,34.536v31.289c0,9.404,3.897,13.526,7.568,18.61,1.271,1.807,1.553,3.982-.085,5.337-4.095,3.417-11.38,9.771-15.39,13.329l-.028-.057" fill="currentColor" fill-rule="evenodd" stroke-width="0"/>
  <path id="path30" d="M59.161,64.103c0,7.822.198,14.345-3.756,21.292-3.191,5.648-8.246,9.121-13.894,9.121-7.709,0-12.199-5.874-12.199-14.543,0-17.113,15.334-20.219,29.849-20.219v4.349M79.408,113.041c-1.327,1.186-3.247,1.271-4.744.48-6.664-5.535-7.85-8.105-11.522-13.385-11.013,11.239-18.807,14.6-33.096,14.6C13.159,114.735,0,104.315,0,83.447,0,67.153,8.839,56.055,21.405,50.633c10.9-4.801,26.121-5.648,37.756-6.975v-2.598c0-4.772.367-10.42-2.429-14.543-2.457-3.699-7.144-5.224-11.267-5.224-7.653,0-14.487,3.925-16.153,12.058-.339,1.807-1.666,3.586-3.473,3.671l-19.485-2.09c-1.638-.367-3.445-1.694-2.993-4.208C7.85,7.117,29.171,0,48.26,0,58.031,0,70.795,2.598,78.504,9.997c9.771,9.121,8.839,21.292,8.839,34.536v31.289c0,9.404,3.897,13.526,7.568,18.61,1.299,1.807,1.581,3.982-.056,5.337-4.095,3.417-11.38,9.771-15.39,13.329l-.056-.057" fill="currentColor" fill-rule="evenodd" stroke-width="0"/>
</svg>