<?xml version="1.0" encoding="UTF-8"?>
<svg id="Layer_1" data-name="Layer 1" xmlns="http://www.w3.org/2000/svg" viewBox="0 0 449.999 89.327">
  <path d="M59.604,45.06h-27.771v15.052h10.16c0,5.644-2.934,14.547-9.821,14.547-9.482,0-10.273-11.412-10.273-29.724,0-16.557,1.243-29.977,9.822-29.977,7.564,0,8.241,6.521,8.805,17.058h19.642C60.168,12.198,51.25-1.597,31.269-1.597,6.547-1.597,0,23.363,0,47.066c0,25.837,8.58,44.151,29.577,44.151,6.095,0,13.094-2.886,17.609-8.658l3.233,6.772h9.186v-44.271h0Z" fill="currentColor" fill-rule="evenodd" stroke-width="0"/>
  <path d="M296.668-1.75c-23.933,0-31.269,23.58-31.269,46.408s7.336,46.407,31.269,46.407,31.27-23.581,31.27-46.407-7.338-46.408-31.27-46.408h0ZM296.668,74.508c-9.37,0-9.37-12.29-9.37-29.85s0-29.852,9.37-29.852,9.371,12.293,9.371,29.852,0,29.85-9.371,29.85h0Z" fill="currentColor" fill-rule="evenodd" stroke-width="0"/>
  <path d="M449.999,25.265c0-17.56-11.739-25.336-26.98-25.336h-30.255v89.303h20.32v-38.63h6.775l10.046,38.63h20.094l-13.435-43.397c7.904-3.261,13.435-11.163,13.435-20.57h0ZM417.035,35.616h-3.951V15.799h3.389c6.772,0,13.207.752,13.207,10.034,0,7.15-4.969,9.783-12.645,9.783h0Z" fill="currentColor" fill-rule="evenodd" stroke-width="0"/>
  <polygon points="83.535 -.013 63.216 -.013 63.216 89.29 111.08 89.29 111.08 69.138 83.535 69.138 83.535 -.013" fill="currentColor" fill-rule="evenodd" stroke-width="0"/>
  <polygon points="229.195 0 221.854 42.258 214.518 .025 181.188 .025 181.188 89.327 201.65 89.327 201.65 21.095 201.874 21.095 214.631 89.327 223.349 89.327 223.349 89.302 229.08 89.302 241.837 21.071 242.062 21.071 242.062 89.302 262.524 89.302 262.524 0 229.195 0" fill="currentColor" fill-rule="evenodd" stroke-width="0"/>
  <path d="M368.431-.013v61.961c0,6.743-2.021,12.49-8.725,12.537-6.708-.047-8.726-5.794-8.726-12.537V-.013h-20.319v60.955c0,19.192,7.982,30.264,26.635,30.254.843,0,1.672,0,2.479-.045.807.045,1.397,0,2.24,0,18.4,0,26.735-11.017,26.735-30.209V-.013h-20.319Z" fill="currentColor" fill-rule="evenodd" stroke-width="0"/>
  <path d="M161.415.025h-30.753l-17.158,89.302h20.545l3.161-18.06h17.783-.125l3.161,18.06h20.545L161.415.025h0ZM140.03,55.464l5.83-35.455,6.185,35.455h-12.015Z" fill="currentColor" fill-rule="evenodd" stroke-width="0"/>
  <path d="M446.938-.119c1.473,0,2.706,1.163,2.706,2.687,0,1.553-1.233,2.714-2.706,2.714-1.484,0-2.723-1.161-2.723-2.714,0-1.524,1.24-2.687,2.723-2.687h0ZM446.938,4.885c1.248,0,2.215-.996,2.215-2.317,0-1.293-.967-2.291-2.215-2.291-1.266,0-2.232.998-2.232,2.291,0,1.321.967,2.317,2.232,2.317h0ZM445.884,1h1.22c.75,0,1.105.296,1.105.904,0,.569-.363.808-.83.858l.903,1.394h-.528l-.86-1.358h-.52v1.358h-.489V1h-.001ZM446.373,2.401h.512c.436,0,.834-.021.834-.519,0-.419-.363-.484-.696-.484h-.65v1.003h0Z" fill="currentColor" fill-rule="evenodd" stroke-width="0"/>
</svg>