<?xml version="1.0" encoding="UTF-8"?>
<svg id="Layer_1" data-name="Layer 1" xmlns="http://www.w3.org/2000/svg" viewBox="0 0 579.981 255.451">
  <path d="M513.764,146.662h31.071v28.903c-5.702,2.174-16.894,4.35-27.504,4.35-34.368,0-45.797-17.446-45.797-52.874,0-33.811,10.881-53.708,45.216-53.708,19.135,0,29.991,6.004,38.99,17.453l23.741-21.811c-14.497-20.672-39.8-26.937-63.557-26.937-53.413-.021-81.498,29.113-81.498,84.721s25.377,85.327,81.212,85.327c25.639,0,50.697-6.526,64.343-16.09v-80.138h-66.216v30.804ZM350.784,177.466h79.071v32.166h-117.23V44.462h38.162l-.003,133.004Z" fill="#currentColor" stroke-width="0"/>
  <path d="M218.044,37.412c-49.89-49.88-130.76-49.89-180.63,0-49.89,49.88-49.88,130.76,0,180.63,49.88,49.88,130.76,49.88,180.63,0,49.88-49.88,49.88-130.76,0-180.63ZM158.994,181.482h-26.1v.06h-9.68v-107.76h9.65v98.07h26.11l.02,9.63ZM128.294,232.662c-58.23,0-105.46-46.93-105.46-104.9S70.044,22.862,128.284,22.862c1.54,0,3.07.03,4.59.09v9.55c-1.52-.06-3.04-.1-4.57-.1-52.93,0-95.86,42.7-95.86,95.35s42.92,95.36,95.86,95.36c51.48,0,93.54-40.4,95.76-91.07l.01-.27h-64.95v-9.62h74.47c.1,1.86.15,3.72.15,5.61,0,57.94-47.21,104.9-105.45,104.9ZM102.544,93.662c-1.11,2.7-2.98,5-5.4,6.63-2.41,1.63-5.26,2.51-8.17,2.52-1.94,0-3.86-.37-5.66-1.11-1.79-.74-3.42-1.82-4.8-3.19-1.37-1.37-2.47-3-3.21-4.79-.75-1.79-1.14-3.71-1.14-5.65,0-2.91.86-5.76,2.48-8.18,1.61-2.43,3.91-4.32,6.6-5.43,2.69-1.12,5.65-1.42,8.51-.85,2.86.56,5.48,1.96,7.55,4.01,2.06,2.05,3.47,4.67,4.05,7.53.57,2.85.29,5.82-.81,8.51Z" fill="currentColor" stroke-width="0"/>
</svg>