<?xml version="1.0" encoding="UTF-8"?>
<svg id="Layer_1" data-name="Layer 1" xmlns="http://www.w3.org/2000/svg" viewBox="0 0 389.433 112.419">
  <path d="M102.137,110.872h-16.192V32.075h16.192v78.797Z" fill="currentColor" stroke-width="0"/>
  <path d="M160.646,30.528c8.938,0,16.241,3.135,21.899,9.403,5.65,6.269,8.483,14.239,8.483,23.902v47.031h-16.193v-44.564c0-6.065-1.953-11.08-5.861-15.036-3.908-3.957-8.735-5.935-14.491-5.935-6.48,0-11.772,1.978-15.883,5.935-4.111,3.956-6.171,8.971-6.171,15.036v44.564h-16.192V32.075h16.192v20.353c2.157-6.782,5.731-12.13,10.722-16.038,4.982-3.908,10.819-5.862,17.503-5.862h-.008Z" fill="currentColor" stroke-width="0"/>
  <path d="M241.511,30.528c12.643,0,22.925,4.527,30.838,13.571,7.913,9.053,11.154,19.995,9.713,32.849h-65.226c1.132,6.375,4.062,11.544,8.792,15.501,4.73,3.956,10.429,5.935,17.113,5.935,5.137,0,9.736-1.262,13.799-3.778,4.062-2.515,7.221-5.935,9.484-10.257l13.571,6.016c-3.493,6.683-8.483,12.024-14.955,16.037-6.472,4.014-13.929,6.017-22.363,6.017-11.821,0-21.745-3.908-29.764-11.715-8.019-7.807-12.032-17.528-12.032-29.145s3.932-21.354,11.796-29.226c7.864-7.864,17.601-11.796,29.226-11.796l.008-.009ZM241.511,44.563c-5.967,0-11.128,1.824-15.5,5.479-4.372,3.648-7.278,8.402-8.711,14.263h48.423c-1.336-5.861-4.193-10.615-8.557-14.263-4.371-3.647-9.59-5.479-15.655-5.479Z" fill="currentColor" stroke-width="0"/>
  <path d="M326.829,30.528c9.46,0,17.169,2.467,23.128,7.401,5.96,4.933,8.947,12.032,8.947,21.28v51.663h-16.192v-20.971c-4.836,15.012-14.548,22.518-29.145,22.518-6.79,0-12.439-2.027-16.966-6.09-4.526-4.062-6.781-9.378-6.781-15.956,0-7.71,2.719-13.498,8.173-17.349,5.447-3.85,12.391-6.244,20.817-7.172l15.264-1.547c5.756-.512,8.638-3.085,8.638-7.709,0-3.802-1.466-6.839-4.396-9.094-2.931-2.263-6.757-3.394-11.487-3.394s-8.923,1.237-12.261,3.704c-3.337,2.466-5.47,6.065-6.398,10.795l-16.038-3.859c1.441-7.4,5.291-13.286,11.568-17.658,6.269-4.364,13.978-6.553,23.129-6.553v-.009ZM318.809,99.304c6.684,0,12.333-2.239,16.958-6.709,4.624-4.469,6.936-9.687,6.936-15.655v-4.315c-1.23,2.06-4.217,3.338-8.947,3.851l-14.955,1.848c-3.908.521-7.018,1.669-9.33,3.468-2.312,1.799-3.468,4.242-3.468,7.327s1.156,5.552,3.468,7.4c2.312,1.848,5.422,2.776,9.33,2.776l.008.009Z" fill="currentColor" stroke-width="0"/>
  <path d="M74.792,110.872H0V32.075h17.112v63.532h57.679v15.265Z" fill="currentColor" stroke-width="0"/>
  <path d="M374.169,30.528c8.43,0,15.264-6.834,15.264-15.264s-6.834-15.264-15.264-15.264-15.265,6.834-15.265,15.264,6.834,15.264,15.265,15.264Z" fill="currentColor" stroke-width="0"/>
</svg>