<?xml version="1.0" encoding="UTF-8"?>
<svg id="Layer_1" data-name="Layer 1" xmlns="http://www.w3.org/2000/svg" viewBox="0 0 923.077 303.858">
  <path d="M395.022,159.906c0,43.716-34.199,75.93-76.17,75.93s-76.17-32.214-76.17-75.93c0-44.025,34.199-75.93,76.17-75.93s76.17,31.906,76.17,75.93ZM361.679,159.906c0-27.318-19.821-46.01-42.826-46.01s-42.826,18.692-42.826,46.01c0,27.045,19.821,46.01,42.826,46.01s42.826-19,42.826-46.01Z" fill="#currentColor" stroke-width="0"/>
  <path d="M559.344,159.906c0,43.716-34.199,75.93-76.17,75.93s-76.17-32.214-76.17-75.93c0-43.99,34.199-75.93,76.17-75.93s76.17,31.906,76.17,75.93ZM526,159.906c0-27.318-19.821-46.01-42.826-46.01s-42.826,18.692-42.826,46.01c0,27.045,19.821,46.01,42.826,46.01s42.826-19,42.826-46.01Z" fill="#currentColor" stroke-width="0"/>
  <path d="M716.819,88.563v136.319c0,56.075-33.07,78.977-72.165,78.977-36.801,0-58.95-24.614-67.303-44.743l29.03-12.084c5.169,12.358,17.836,26.942,38.239,26.942,25.025,0,40.533-15.439,40.533-44.504v-10.921h-1.164c-7.463,9.209-21.841,17.254-39.985,17.254-37.965,0-72.747-33.07-72.747-75.622,0-42.861,34.781-76.204,72.747-76.204,18.11,0,32.488,8.045,39.985,16.98h1.164v-12.358h31.666v-.034ZM687.515,160.179c0-26.737-17.836-46.284-40.533-46.284-23.005,0-42.279,19.547-42.279,46.284,0,26.463,19.274,45.736,42.279,45.736,22.697,0,40.533-19.274,40.533-45.736Z" fill="#currentColor" stroke-width="0"/>
  <path d="M769.025,8.661v222.519h-32.522V8.661h32.522Z" fill="#currentColor" stroke-width="0"/>
  <path d="M895.758,184.896l25.881,17.254c-8.353,12.358-28.482,33.652-63.264,33.652-43.134,0-75.348-33.344-75.348-75.93,0-45.154,32.488-75.93,71.617-75.93,39.403,0,58.677,31.358,64.976,48.304l3.458,8.627-101.503,42.039c7.771,15.234,19.856,23.005,36.801,23.005s28.756-8.353,37.383-21.019h0ZM816.097,157.578l67.851-28.174c-3.731-9.483-14.96-16.09-28.174-16.09-16.946,0-40.533,14.96-39.677,44.264Z" fill="#currentColor" stroke-width="0"/>
  <path d="M119.578,140.153v-32.214h108.555c1.061,5.614,1.609,12.256,1.609,19.445,0,24.169-6.607,54.055-27.9,75.348-20.711,21.567-47.174,33.07-82.229,33.07-64.976,0-119.612-52.925-119.612-117.901S54.637,0,119.612,0c35.945,0,61.552,14.104,80.791,32.488l-22.731,22.731c-13.796-12.94-32.488-23.005-58.095-23.005-47.448,0-84.557,38.239-84.557,85.687s37.109,85.687,84.557,85.687c30.776,0,48.304-12.358,59.532-23.587,9.106-9.106,15.097-22.115,17.459-39.882l-76.992.034Z" fill="#currentColor" stroke-width="0"/>
</svg>