<?xml version="1.0" encoding="UTF-8"?>
<svg xmlns="http://www.w3.org/2000/svg" viewBox="0 0 641.668 116.807">
  <g id="MM_Head_background_Do_not_edit_" data-name="MM Head background (Do not edit)">
    <path d="M121.385,0l-40.61,14.99-.003.006.003-.007h-33.85,0S6.317,0,6.317,0l.266.198L6.316.003,0,18.741l4.244,20.149-2.714,1.995,4.046,3.018-3.059,2.336,3.997,3.602-2.517,1.801,5.772,6.667L1.036,85.075h.02-.019s8.092,27.353,8.092,27.353l28.372-7.738-.018-.028.018.027h0s0,0,0,0h.002s-.002.002-.002.002l.007.003,5.519,4.472,11.201,7.641h19.195l11.25-7.641,5.476-4.477h0s0,0,0,0h0s0,0,0,0h0,0l.032-.048-.032.049,28.422,7.738,8.142-27.352h-.019s.019,0,.019,0l-8.783-26.768M117.931,58.306l5.773-6.668-2.516-1.801,3.997-3.602-3.059-2.336,3.997-3.017-2.615-1.996,4.194-20.149L121.385,0M90.15,104.688h0M37.504,104.689h-.002" fill="#f5841f" stroke-width="0"/>
  </g>
  <g id="Logos">
    <g>
      <g>
        <path d="M566.769,58.863c-3.334-2.207-7.012-3.776-10.493-5.737-2.256-1.275-4.658-2.403-6.62-4.021-3.334-2.746-2.648-8.14.834-10.494,5.002-3.334,13.288-1.471,14.171,5.345,0,.147.147.245.294.245h7.551c.196,0,.343-.147.294-.343-.392-4.707-2.207-8.63-5.541-11.131-3.187-2.403-6.816-3.678-10.69-3.678-19.957,0-21.771,21.134-11.033,27.803,1.226.785,11.768,6.08,15.495,8.385,3.727,2.305,4.904,6.522,3.285,9.856-1.471,3.04-5.296,5.149-9.12,4.904-4.168-.245-7.404-2.501-8.532-6.031-.196-.637-.294-1.863-.294-2.403,0-.147-.147-.294-.294-.294h-8.189c-.147,0-.294.147-.294.294,0,5.933,1.471,9.219,5.492,12.21,3.776,2.844,7.895,4.021,12.161,4.021,11.18,0,16.966-6.325,18.143-12.896,1.03-6.424-.883-12.21-6.62-16.034Z" fill="#fff" stroke-width="0"/>
        <path d="M216.011,30.109h-12.406c-.147,0-.245.098-.294.196l-6.718,22.164c-.098.294-.49.294-.588,0l-6.718-22.164c-.049-.147-.147-.196-.294-.196h-12.504c-.147,0-.294.147-.294.294v56.586c0,.147.147.294.294.294h8.189c.147,0,.294-.147.294-.294v-43.004c0-.343.49-.392.588-.098l6.767,22.311.49,1.569c.049.147.147.196.294.196h6.276c.147,0,.245-.098.294-.196l.49-1.569,6.767-22.311c.098-.343.588-.245.588.098v43.004c0,.147.147.294.294.294h8.189c.147,0,.294-.147.294-.294V30.403c0-.147-.147-.294-.294-.294Z" fill="#fff" stroke-width="0"/>
        <path d="M441.389,30.109c-.147,0-.245.098-.294.196l-6.718,22.164c-.098.294-.49.294-.588,0l-6.718-22.164c-.049-.147-.147-.196-.294-.196h-12.455c-.147,0-.294.147-.294.294v56.586c0,.147.147.294.294.294h8.189c.147,0,.294-.147.294-.294v-43.004c0-.343.49-.392.588-.098l6.767,22.311.49,1.569c.049.147.147.196.294.196h6.277c.147,0,.245-.098.294-.196l.49-1.569,6.767-22.311c.098-.343.588-.245.588.098v43.004c0,.147.147.294.294.294h8.189c.147,0,.294-.147.294-.294V30.403c0-.147-.147-.294-.294-.294h-12.455Z" fill="#fff" stroke-width="0"/>
        <path d="M335.761,30.109h-38.688c-.147,0-.294.147-.294.294v7.061c0,.147.147.294.294.294h14.956v49.231c0,.147.147.294.294.294h8.189c.147,0,.294-.147.294-.294v-49.231h14.956c.147,0,.294-.147.294-.294v-7.061c0-.147-.098-.294-.294-.294Z" fill="#fff" stroke-width="0"/>
        <path d="M364.482,62.276l5.982-22.115c.098-.294.49-.294.588,0l5.982,22.115c.049.196-.098.392-.294.392h-11.965c-.196,0-.343-.196-.294-.392ZM384.047,87.284h7.453c.196,0,.343-.196.294-.392l-15.397-56.782c-.049-.147-.147-.196-.294-.196h-10.69c-.147,0-.245.098-.294.196l-15.397,56.782c-.049.196.098.392.294.392h7.453c.147,0,.245-.098.294-.196l4.462-16.525c.049-.147.147-.196.294-.196h16.476c.147,0,.245.098.294.196l4.462,16.525c.049.098.196.196.294.196Z" fill="#fff" stroke-width="0"/>
        <path d="M491.58,62.276l5.982-22.115c.098-.294.49-.294.588,0l5.982,22.115c.049.196-.098.392-.294.392h-11.965c-.196,0-.343-.196-.294-.392ZM511.145,87.284h7.453c.196,0,.343-.196.294-.392l-15.397-56.782c-.049-.147-.147-.196-.294-.196h-10.69c-.147,0-.245.098-.294.196l-15.397,56.782c-.049.196.098.392.294.392h7.453c.147,0,.245-.098.294-.196l4.462-16.525c.049-.147.147-.196.294-.196h16.476c.147,0,.245.098.294.196l4.462,16.525c.049.098.147.196.294.196Z" fill="#fff" stroke-width="0"/>
        <path d="M249.56,78.928v-17.554c0-.147.147-.294.294-.294h21.821c.147,0,.294-.147.294-.294v-7.061c0-.147-.147-.294-.294-.294h-21.821c-.147,0-.294-.147-.294-.294v-15.005c0-.147.147-.294.294-.294h24.812c.147,0,.294-.147.294-.294v-7.061c0-.147-.147-.294-.294-.294h-33.589c-.147,0-.294.147-.294.294v56.537c0,.147.147.294.294.294h34.619c.147,0,.294-.147.294-.294v-7.453c0-.147-.147-.294-.294-.294h-25.89c-.147-.049-.245-.147-.245-.343Z" fill="#fff" stroke-width="0"/>
        <path d="M641.575,86.823l-28.342-29.274c-.098-.098-.098-.294,0-.392l25.498-26.479c.196-.196.049-.49-.196-.49h-10.444c-.098,0-.147.049-.196.098l-21.624,22.458c-.196.196-.49.049-.49-.196v-22.066c0-.147-.147-.294-.294-.294h-8.189c-.147,0-.294.147-.294.294v56.586c0,.147.147.294.294.294h8.189c.147,0,.294-.147.294-.294v-24.91c0-.245.343-.392.49-.196l24.517,25.302c.049.049.147.098.196.098h10.444c.196-.049.343-.392.147-.539Z" fill="#fff" stroke-width="0"/>
      </g>
      <g>
        <polygon points="121.385 0 71.498 36.502 80.775 14.99 121.385 0" fill="#e27625" stroke-width="0"/>
        <polygon points="6.317 0 55.759 36.843 46.926 14.99 6.317 0" fill="#e27625" stroke-width="0"/>
        <polygon points="103.424 84.637 90.151 104.689 118.572 112.428 126.714 85.076 103.424 84.637" fill="#e27625" stroke-width="0"/>
        <polygon points="1.036 85.076 9.129 112.428 37.501 104.689 24.277 84.637 1.036 85.076" fill="#e27625" stroke-width="0"/>
        <polygon points="35.972 50.762 28.077 62.54 56.202 63.806 55.265 33.874 35.972 50.762" fill="#e27625" stroke-width="0"/>
        <polygon points="91.729 50.762 72.14 33.533 71.498 63.805 99.624 62.54 91.729 50.762" fill="#e27625" stroke-width="0"/>
        <polygon points="37.501 104.689 54.524 96.561 39.869 85.269 37.501 104.689" fill="#e27625" stroke-width="0"/>
        <polygon points="73.176 96.561 90.151 104.689 87.831 85.269 73.176 96.561" fill="#e27625" stroke-width="0"/>
        <polygon points="90.151 104.689 73.176 96.561 74.558 107.463 74.41 112.086 90.151 104.689" fill="#d7c1b3" stroke-width="0"/>
        <polygon points="37.501 104.691 53.291 112.088 53.192 107.465 54.525 96.563 37.501 104.691" fill="#d7c1b3" stroke-width="0"/>
        <polygon points="53.587 78.066 39.475 73.977 49.442 69.451 53.587 78.066" fill="#2f343b" stroke-width="0"/>
        <polygon points="74.113 78.066 78.258 69.451 88.275 73.977 74.113 78.066" fill="#2f343b" stroke-width="0"/>
        <polygon points="37.501 104.689 39.968 84.637 24.277 85.075 37.501 104.689" fill="#cc6228" stroke-width="0"/>
        <polygon points="87.732 84.637 90.15 104.689 103.424 85.075 87.732 84.637" fill="#cc6228" stroke-width="0"/>
        <polygon points="99.624 62.54 71.498 63.806 74.114 78.066 78.258 69.451 88.275 73.978 99.624 62.54" fill="#cc6228" stroke-width="0"/>
        <polygon points="39.475 73.978 49.442 69.451 53.587 78.066 56.202 63.806 28.077 62.54 39.475 73.978" fill="#cc6228" stroke-width="0"/>
        <polygon points="28.077 62.544 39.87 85.272 39.475 73.981 28.077 62.544" fill="#e27625" stroke-width="0"/>
        <polygon points="88.276 73.978 87.832 85.269 99.625 62.54 88.276 73.978" fill="#e27625" stroke-width="0"/>
        <polygon points="56.202 63.805 53.587 78.065 56.893 94.905 57.633 72.712 56.202 63.805" fill="#e27625" stroke-width="0"/>
        <polygon points="71.499 63.805 70.117 72.663 70.808 94.905 74.114 78.065 71.499 63.805" fill="#e27625" stroke-width="0"/>
        <polygon points="74.114 78.067 70.808 94.907 73.176 96.562 87.831 85.27 88.275 73.979 74.114 78.067" fill="#f5841f" stroke-width="0"/>
        <polygon points="39.475 73.979 39.87 85.27 54.525 96.562 56.893 94.907 53.587 78.067 39.475 73.979" fill="#f5841f" stroke-width="0"/>
        <polygon points="74.41 112.086 74.558 107.462 73.275 106.392 54.426 106.392 53.192 107.462 53.291 112.086 37.501 104.688 43.028 109.166 54.229 116.807 73.423 116.807 84.673 109.166 90.151 104.688 74.41 112.086" fill="#c0ad9e" stroke-width="0"/>
        <polygon points="73.176 96.561 70.808 94.906 56.893 94.906 54.525 96.561 53.192 107.463 54.426 106.392 73.275 106.392 74.558 107.463 73.176 96.561" fill="#2f343b" stroke-width="0"/>
        <polygon points="123.507 38.887 127.701 18.738 121.385 0 73.176 35.286 91.73 50.763 117.931 58.306 123.704 51.639 121.188 49.838 125.184 46.236 122.125 43.9 126.122 40.883 123.507 38.887" fill="#763e1a" stroke-width="0"/>
        <polygon points="0 18.741 4.244 38.89 1.53 40.886 5.576 43.903 2.517 46.24 6.513 49.841 3.997 51.642 9.77 58.31 35.971 50.766 54.524 35.289 6.316 .003 0 18.741" fill="#763e1a" stroke-width="0"/>
        <polygon points="117.931 58.307 91.729 50.763 99.624 62.541 87.831 85.27 103.424 85.075 126.714 85.075 117.931 58.307" fill="#f5841f" stroke-width="0"/>
        <polygon points="35.971 50.763 9.77 58.307 1.036 85.075 24.277 85.075 39.869 85.27 28.076 62.541 35.971 50.763" fill="#f5841f" stroke-width="0"/>
        <polygon points="71.498 63.805 73.176 35.285 80.775 14.99 46.925 14.99 54.524 35.285 56.202 63.805 56.843 72.761 56.893 94.905 70.808 94.905 70.857 72.761 71.498 63.805" fill="#f5841f" stroke-width="0"/>
      </g>
    </g>
  </g>
</svg>