<svg viewBox="0 0 140 32" fill="none" xmlns="http://www.w3.org/2000/svg"><path d="M6.95244 6.64195C8.669 6.59952 10.3677 7.00327 11.886 7.81457C13.4043 8.62587 14.6915 9.81761 15.6246 11.2759C15.9299 10.9129 16.2048 10.5576 16.5101 10.2255C16.9895 9.75001 17.5639 9.38368 18.1947 9.1511C18.8255 8.91852 19.4982 8.82506 20.1676 8.87698C20.8371 8.92891 21.4877 9.12504 22.0761 9.45219C22.6645 9.77935 23.177 10.23 23.5791 10.7739C24.5248 12.2822 25.2934 13.897 25.8693 15.5854C26.2953 16.737 26.8056 17.8548 27.3961 18.9296C27.4966 19.1514 27.6578 19.3394 27.8608 19.4712C28.0638 19.603 28.3 19.673 28.5412 19.673C28.7824 19.673 29.0185 19.603 29.2214 19.4712C29.4244 19.3394 29.5858 19.1514 29.6863 18.9296C30.1813 18.0238 30.5195 17.0391 30.6863 16.0179C30.902 14.5623 31.3615 13.1545 32.0451 11.8551C33.009 10.1328 34.4428 8.72782 36.1751 7.80816C37.6567 6.99539 39.3224 6.58807 41.0073 6.62651V9.83164C36.9155 10.0247 34.3735 13.253 34.4651 16.1338C34.5567 19.0145 37.0835 21.988 41.0073 22.127V25.2163C38.6332 25.726 34.404 23.857 32.5031 20.7909C32.1136 21.4599 31.5641 22.0191 30.9052 22.4172C30.2462 22.8153 29.499 23.0395 28.732 23.0692C25.9304 23.2777 24.457 21.8567 23.5562 19.8177C22.747 17.9873 22.1134 16.0951 21.3882 14.2416C21.229 13.8282 21.0241 13.4344 20.7774 13.0677C20.1133 12.1254 18.9758 12.2953 18.2048 13.4152C17.493 14.5669 17.0565 15.8706 16.9299 17.2227C16.5992 19.2502 15.5947 21.1028 14.0825 22.4745C12.7252 23.8056 11.0236 24.7213 9.17394 25.1159C8.47162 25.2626 7.73108 25.2935 6.93716 25.3862V22.0806C7.81643 22.1085 8.69186 21.9512 9.50792 21.6189C10.324 21.2865 11.0629 20.7863 11.6779 20.1498C12.3397 19.5444 12.8486 18.7875 13.1621 17.9423C13.4755 17.0972 13.5843 16.1884 13.4795 15.2919C13.1589 12.8437 10.9068 10.0093 6.92188 9.80074L6.95244 6.64195Z" fill="currentColor"/><path d="M44.6821 3.29009V28.6994H3.31748V3.29009H44.6821ZM47.9997 0H0V31.9973H47.9997V0Z" fill="currentColor"/><path fill-rule="evenodd" clip-rule="evenodd" d="M127.956 24.0375V13.9514L136.164 23.4748C136.316 23.6521 136.505 23.7943 136.719 23.8915C136.932 23.9887 137.164 24.0385 137.399 24.0375C137.589 24.0352 137.776 23.9995 137.953 23.932C138.267 23.8225 138.536 23.6152 138.72 23.3411C138.91 23.0737 139.009 22.7536 139.004 22.4268V8.00095H135.773V18.08L127.559 8.55661C127.342 8.30892 127.053 8.13254 126.733 8.05088C126.412 7.96923 126.073 7.98617 125.763 8.09943C125.454 8.21481 125.189 8.42101 125.003 8.69025C124.809 8.95592 124.707 9.27668 124.712 9.6046V24.0375H127.956ZM92.4073 16.9687C93.1421 17.4063 93.9853 17.6328 94.8426 17.6228H99.9404C100.153 17.6192 100.365 17.6592 100.562 17.7403C100.758 17.8214 100.936 17.9418 101.083 18.0941C101.307 18.3187 101.458 18.6035 101.519 18.913C101.58 19.2225 101.547 19.5429 101.425 19.8341C101.303 20.1253 101.097 20.3744 100.833 20.5503C100.569 20.7262 100.259 20.8211 99.9404 20.8231H90.2276V24.0374H99.9758C100.833 24.0473 101.676 23.8209 102.411 23.3833C103.136 22.9596 103.741 22.3622 104.172 21.646C104.604 20.9116 104.832 20.0766 104.832 19.2265C104.832 18.3763 104.604 17.5414 104.172 16.8069C103.744 16.0869 103.138 15.4866 102.411 15.0626C101.676 14.625 100.833 14.3986 99.9758 14.4085H94.8426C94.6215 14.423 94.3997 14.3924 94.191 14.3186C93.9823 14.2447 93.7911 14.1292 93.6293 13.9792C93.4675 13.8292 93.3385 13.6479 93.2503 13.4465C93.1621 13.2451 93.1167 13.0279 93.1167 12.8084C93.1167 12.5888 93.1621 12.3716 93.2503 12.1702C93.3385 11.9688 93.4675 11.7875 93.6293 11.6375C93.7911 11.4875 93.9823 11.372 94.191 11.2981C94.3997 11.2243 94.6215 11.1937 94.8426 11.2082H104.285V8.00092H94.8426C93.986 7.98887 93.1428 8.21291 92.4073 8.64801C91.6804 9.07201 91.0745 9.6723 90.6465 10.3923C90.2143 11.1268 89.9865 11.9617 89.9865 12.8119C89.9865 13.662 90.2143 14.497 90.6465 15.2314C91.0755 15.9489 91.6813 16.5467 92.4073 16.9687ZM57.6248 24.0375C57.1936 24.0375 56.7801 23.8678 56.4752 23.5657C56.1703 23.2636 55.999 22.854 55.999 22.4268V9.60461C56.0009 9.17865 56.173 8.77078 56.4777 8.47024C56.7824 8.1697 57.1949 8.00096 57.6248 8.00096H65.1721C66.0308 7.98981 66.876 8.21374 67.6145 8.64806C68.3427 9.07031 68.949 9.671 69.3752 10.3924C69.8169 11.1203 70.0456 11.9556 70.0356 12.8049C70.0455 13.9945 69.5988 15.1435 68.786 16.0192C69.1833 16.4428 69.4963 16.9367 69.7089 17.4751C69.9295 18.033 70.0404 18.6274 70.0356 19.2265C70.0443 20.0778 69.8158 20.9151 69.3752 21.6461C68.9463 22.3635 68.3404 22.9613 67.6145 23.3833C66.8766 23.8198 66.0314 24.0461 65.1721 24.0375H57.6248ZM59.2436 11.2083V14.4085H65.1721C65.3844 14.4122 65.5954 14.373 65.7919 14.2931C65.9885 14.2133 66.1665 14.0946 66.3151 13.9443C66.466 13.7953 66.5858 13.6183 66.6675 13.4234C66.7492 13.2284 66.7913 13.0195 66.7913 12.8084C66.7913 12.5973 66.7492 12.3883 66.6675 12.1934C66.5858 11.9985 66.466 11.8215 66.3151 11.6725C66.1665 11.5222 65.9885 11.4035 65.7919 11.3237C65.5954 11.2439 65.3844 11.2046 65.1721 11.2083H59.2436ZM59.2436 17.6229V20.8231H65.1721C65.3844 20.8268 65.5954 20.7875 65.7919 20.7077C65.9885 20.6279 66.1665 20.5092 66.3151 20.3589C66.5409 20.1346 66.6946 19.8492 66.7568 19.5385C66.819 19.2278 66.7869 18.9059 66.6647 18.6132C66.5424 18.3206 66.3354 18.0704 66.0698 17.8941C65.8041 17.7179 65.4918 17.6235 65.1721 17.6229H59.2436ZM77.1577 24.0375C76.2984 24.0462 75.4533 23.8199 74.7154 23.3834C73.9943 22.9576 73.3916 22.3605 72.9618 21.6461C72.5212 20.9152 72.2927 20.0779 72.3014 19.2266V12.805C72.2914 11.9557 72.5201 11.1204 72.9618 10.3925C73.3895 9.67461 73.9925 9.07478 74.7154 8.64814C75.4539 8.21383 76.299 7.9899 77.1577 8.00105H82.8377C83.6964 7.9899 84.5416 8.21383 85.2801 8.64814C86.0083 9.0704 86.6146 9.67108 87.0409 10.3925C87.4826 11.1204 87.7111 11.9557 87.7011 12.805V19.1985C87.7098 20.0498 87.4814 20.887 87.0409 21.618C86.6119 22.3355 86.0061 22.9333 85.2801 23.3553C84.5422 23.7917 83.697 24.0181 82.8377 24.0094L77.1577 24.0375ZM75.546 12.7839V19.1985C75.5442 19.4087 75.5845 19.6171 75.6649 19.8117C75.7452 20.0062 75.8638 20.183 76.0139 20.3316C76.1639 20.4803 76.3424 20.5978 76.5388 20.6774C76.7351 20.7569 76.9456 20.797 77.1577 20.7951H82.8377C83.0501 20.7988 83.261 20.7595 83.4575 20.6797C83.6541 20.5999 83.8321 20.4812 83.9808 20.3309C84.1348 20.185 84.2566 20.009 84.3385 19.8141C84.4204 19.6192 84.4606 19.4095 84.4565 19.1985V12.7768C84.4565 12.5666 84.4146 12.3584 84.3331 12.1642C84.2517 11.97 84.1324 11.7937 83.982 11.6454C83.8316 11.497 83.653 11.3796 83.4567 11.2997C83.2603 11.2199 83.0499 11.1793 82.8377 11.1802H77.1577C76.9456 11.1783 76.7351 11.2184 76.5388 11.2979C76.3424 11.3775 76.1639 11.495 76.0139 11.6437C75.8638 11.7923 75.7452 11.9691 75.6649 12.1636C75.5845 12.3582 75.5442 12.5666 75.546 12.7768V12.7839ZM111.882 24.0375C111.025 24.0463 110.182 23.8199 109.447 23.3834C108.723 22.9577 108.118 22.3608 107.686 21.6461C107.25 20.9133 107.025 20.0768 107.033 19.2266V12.8049C107.024 11.9567 107.25 11.1224 107.686 10.3924C108.116 9.67426 108.722 9.07451 109.447 8.64809C110.182 8.21367 111.025 7.98968 111.882 8.00099H117.562C118.42 7.99058 119.265 8.21445 120.004 8.64809C120.729 9.07451 121.334 9.67426 121.765 10.3924C122.207 11.1204 122.435 11.9556 122.425 12.8049V19.1984C122.434 20.0497 122.205 20.887 121.765 21.618C121.332 22.3326 120.727 22.9296 120.004 23.3552C119.266 23.791 118.421 24.0173 117.562 24.0094L111.882 24.0375ZM110.27 12.7838V19.1984C110.268 19.4093 110.309 19.6184 110.391 19.8131C110.472 20.0077 110.593 20.1839 110.746 20.3308C110.893 20.4812 111.07 20.6001 111.265 20.68C111.461 20.7598 111.67 20.799 111.882 20.795H117.562C117.774 20.7975 117.985 20.7577 118.181 20.6779C118.377 20.5982 118.555 20.4801 118.705 20.3308C118.859 20.1849 118.981 20.009 119.063 19.814C119.144 19.6191 119.185 19.4095 119.181 19.1984V12.7768C119.184 12.5658 119.144 12.3563 119.062 12.1614C118.98 11.9666 118.859 11.7905 118.705 11.6444C118.555 11.4951 118.377 11.377 118.181 11.2973C117.985 11.2175 117.774 11.1777 117.562 11.1802H111.882C111.67 11.1762 111.461 11.2154 111.265 11.2952C111.07 11.3751 110.893 11.4939 110.746 11.6444C110.595 11.7972 110.478 11.9791 110.401 12.1787C110.324 12.3783 110.289 12.5915 110.299 12.8049L110.27 12.7838Z" class="duration-300" fill="currentColor"/></svg>