<?xml version="1.0" encoding="UTF-8"?>
<svg id="Layer_1" data-name="Layer 1" xmlns="http://www.w3.org/2000/svg" viewBox="-1.4 -4 30 30">
  <path d="M25.759,2.536l-9.464,9.456c-.779.787-1.83,1.212-2.946,1.212s-2.159-.425-2.938-1.212L.947,2.536C1.959,1.011,3.693,0,5.651,0h15.404c1.959,0,3.693,1.011,4.704,2.536Z" fill="currentColor" stroke-width="0"/>
  <path d="M26.706,5.651v8.982c0,3.106-2.545,5.651-5.651,5.651H5.651c-3.106,0-5.651-2.545-5.651-5.651V5.651c0-.209.008-.417.04-.618l8.661,8.661c1.284,1.284,2.97,1.927,4.648,1.927s3.371-.642,4.648-1.927l8.669-8.661c.032.201.04.409.04.618Z" fill="currentColor" stroke-width="0"/>
</svg>