<?xml version="1.0" encoding="UTF-8"?>
<svg id="Layer_1" data-name="Layer 1" xmlns="http://www.w3.org/2000/svg" viewBox="0 0 72 72">
  <path d="M72,8.8v54.4c0,4.86-3.94,8.8-8.8,8.8h-15.37l-.06-.07c-.24.05-.47.07-.67.07-1.35,0-1.87-.98-1.87-1.82,0-1.25.04-5.22.04-10.15,0-3.46-1.15-5.68-2.49-6.83,8.21-.93,16.84-4.06,16.84-18.23,0-4.06-1.43-7.33-3.78-9.92.37-.92,1.66-4.7-.37-9.78,0,0-3.09-1.01-10.15,3.79-2.95-.84-6.09-1.25-9.23-1.25s-6.27.41-9.23,1.25c-7.05-4.76-10.15-3.79-10.15-3.79-2.03,5.08-.73,8.86-.36,9.78-2.36,2.59-3.79,5.91-3.79,9.92,0,14.12,8.58,17.3,16.8,18.23-1.07.92-2.03,2.53-2.36,4.93-2.12.97-7.43,2.54-10.75-3.04-.69-1.11-2.77-3.83-5.67-3.78-3.09.04-1.25,1.75.04,2.44,1.57.88,3.37,4.15,3.79,5.21.74,2.08,3.13,6.05,12.41,4.34,0,3.09.04,6,.04,6.88,0,.97-.69,2.07-2.53,1.75l-.06.07h-15.47c-4.86,0-8.8-3.94-8.8-8.8V8.8C0,3.94,3.94,0,8.8,0h54.4c4.86,0,8.8,3.94,8.8,8.8Z" fill="#000" fill-rule="evenodd" stroke-width="0"/>
</svg>