<?xml version="1.0" encoding="UTF-8"?>
<svg id="Layer_1" data-name="Layer 1" xmlns="http://www.w3.org/2000/svg" viewBox="0 0 72 72">
  <path d="M63.203,0c4.855,0,8.797,3.942,8.797,8.797v54.407c0,4.855-3.942,8.797-8.797,8.797H8.797C3.942,72,0,68.058,0,63.203V8.797C0,3.942,3.942,0,8.797,0,8.797,0,63.203,0,63.203,0ZM36,11.391c-6.683,0-7.522.028-10.146.148-2.619.12-4.408.535-5.974,1.144-1.618.629-2.991,1.47-4.359,2.838-1.368,1.368-2.21,2.741-2.839,4.359-.608,1.565-1.024,3.354-1.144,5.974-.12,2.625-.148,3.463-.148,10.146s.028,7.522.148,10.146c.12,2.619.536,4.408,1.144,5.974.629,1.618,1.47,2.991,2.839,4.359,1.368,1.368,2.741,2.21,4.359,2.839,1.565.608,3.354,1.024,5.974,1.144,2.625.12,3.463.148,10.146.148s7.522-.028,10.146-.148c2.619-.12,4.408-.536,5.974-1.144,1.618-.629,2.991-1.47,4.359-2.839s2.21-2.741,2.839-4.359c.608-1.565,1.024-3.354,1.144-5.974.12-2.625.148-3.463.148-10.146s-.028-7.522-.148-10.146c-.12-2.619-.536-4.408-1.144-5.974-.629-1.618-1.47-2.991-2.839-4.359-1.368-1.368-2.741-2.209-4.359-2.838-1.565-.608-3.354-1.024-5.974-1.144-2.625-.12-3.463-.148-10.146-.148ZM36,15.825c6.571,0,7.349.025,9.944.143,2.399.11,3.702.51,4.57.847,1.149.446,1.968.98,2.83,1.841.861.861,1.394,1.681,1.841,2.83.337.867.738,2.17.847,4.57.118,2.595.144,3.373.144,9.944s-.025,7.349-.144,9.944c-.109,2.399-.51,3.702-.847,4.57-.446,1.149-.98,1.968-1.841,2.83-.861.861-1.681,1.394-2.83,1.841-.867.337-2.17.738-4.57.847-2.595.118-3.373.144-9.944.144s-7.35-.025-9.944-.144c-2.399-.109-3.702-.51-4.57-.847-1.149-.446-1.968-.98-2.83-1.841-.861-.861-1.395-1.681-1.841-2.83-.337-.867-.738-2.17-.847-4.57-.118-2.595-.143-3.373-.143-9.944s.025-7.349.143-9.944c.11-2.399.51-3.702.847-4.57.446-1.149.98-1.968,1.841-2.83.861-.861,1.681-1.394,2.83-1.841.867-.337,2.17-.738,4.57-.847,2.595-.118,3.373-.143,9.944-.143ZM36,23.363c-6.979,0-12.637,5.658-12.637,12.637s5.658,12.637,12.637,12.637,12.637-5.658,12.637-12.637-5.658-12.637-12.637-12.637ZM36,44.203c-4.531,0-8.203-3.673-8.203-8.203s3.673-8.203,8.203-8.203,8.203,3.673,8.203,8.203-3.673,8.203-8.203,8.203ZM52.09,22.864c0,1.631-1.322,2.953-2.953,2.953s-2.953-1.322-2.953-2.953,1.322-2.953,2.953-2.953,2.953,1.322,2.953,2.953Z" fill="currentColor" fill-rule="evenodd" stroke-width="0"/>
</svg>