<?xml version="1.0" encoding="UTF-8"?>
<svg id="Layer_1" data-name="Layer 1" xmlns="http://www.w3.org/2000/svg" viewBox="0 0 72 72">
  <path d="M63.203,0c4.855,0,8.797,3.942,8.797,8.797v54.407c0,4.855-3.942,8.797-8.797,8.797H8.797C3.942,72,0,68.058,0,63.203V8.797C0,3.942,3.942,0,8.797,0,8.797,0,63.203,0,63.203,0ZM22.565,59.523v-31.741h-10.553v31.741h10.553ZM60.609,59.523v-18.202c0-9.75-5.206-14.286-12.147-14.286-5.597,0-8.105,3.078-9.509,5.241v-4.494h-10.55c.14,2.979,0,31.741,0,31.741h10.55v-17.727c0-.949.068-1.897.348-2.576.761-1.895,2.498-3.858,5.413-3.858,3.816,0,5.345,2.912,5.345,7.177v16.983h10.55ZM17.36,12.477c-3.61,0-5.969,2.374-5.969,5.485,0,3.046,2.287,5.485,5.83,5.485h.068c3.679,0,5.97-2.439,5.97-5.485-.068-3.107-2.284-5.478-5.898-5.485Z" fill="currentColor" fill-rule="evenodd" stroke-width="0"/>
</svg>